<svg xmlns="http://www.w3.org/2000/svg" version="1" xmlns:xlink="http://www.w3.org/1999/xlink" width="500" zoomAndPan="magnify" viewBox="0 0 375 374.999991" height="500" preserveAspectRatio="xMidYMid meet"><metadata><rdf:RDF xmlns:rdf="http://www.w3.org/1999/02/22-rdf-syntax-ns#" xmlns:dc="http://purl.org/dc/elements/1.1/"><rdf:Description><dc:creator>RealFaviconGenerator</dc:creator><dc:source>https://realfavicongenerator.net</dc:source></rdf:Description></rdf:RDF></metadata><defs><clipPath id="cfaa9e6281"><path d="M 187.5 0 C 83.945312 0 0 83.945312 0 187.5 C 0 291.054688 83.945312 375 187.5 375 C 291.054688 375 375 291.054688 375 187.5 C 375 83.945312 291.054688 0 187.5 0 Z M 187.5 0 " clip-rule="nonzero"></path></clipPath><clipPath id="0b91abfd7f"><path d="M 0 0 L 375 0 L 375 375 L 0 375 Z M 0 0 " clip-rule="nonzero"></path></clipPath><clipPath id="25f99a3f8d"><path d="M 187.5 0 C 83.945312 0 0 83.945312 0 187.5 C 0 291.054688 83.945312 375 187.5 375 C 291.054688 375 375 291.054688 375 187.5 C 375 83.945312 291.054688 0 187.5 0 Z M 187.5 0 " clip-rule="nonzero"></path></clipPath><clipPath id="4b90fb59f4"><rect x="0" width="375" y="0" height="375"></rect></clipPath></defs><rect x="-37.5" width="450" fill="#ffffff" y="-37.499999" height="449.999989" fill-opacity="1"></rect><rect x="-37.5" width="450" fill="#ffffff" y="-37.499999" height="449.999989" fill-opacity="1"></rect><g clip-path="url(#cfaa9e6281)"><g transform="matrix(1, 0, 0, 1, 0, 0)"><g clip-path="url(#4b90fb59f4)"><g clip-path="url(#0b91abfd7f)"><g clip-path="url(#25f99a3f8d)"><rect x="-82.5" width="540" fill="#000000" height="539.999987" y="-82.499998" fill-opacity="1"></rect></g></g></g></g></g><path fill="#daaf08" d="M 109.441406 286.246094 C 103.820312 285.132812 98.777344 283.03125 94.046875 279.6875 C 90.703125 277.367188 38.734375 225.808594 34.585938 220.722656 C 31.507812 216.929688 28.878906 211.667969 27.5 206.582031 C 26.742188 203.683594 26.558594 201.8125 26.558594 195.300781 C 26.511719 186.511719 27.050781 183.34375 29.417969 177.679688 C 32.230469 170.898438 33.472656 169.476562 64.476562 138.5625 C 80.628906 122.410156 94.851562 108.5 96.058594 107.605469 C 99.136719 105.421875 102.523438 103.722656 106.984375 102.25 C 110.683594 101 111.039062 101 120.136719 101 C 129.0625 101 129.683594 101.042969 133.429688 102.203125 C 142.308594 104.972656 144.664062 106.753906 161.757812 123.664062 C 174.472656 136.242188 176.117188 138.070312 176.117188 139.273438 C 176.117188 140.527344 173.933594 142.847656 156.578125 160.195312 C 137.355469 179.414062 137.035156 179.6875 135.300781 179.6875 C 133.566406 179.6875 133.210938 179.378906 125.710938 171.886719 C 121.425781 167.601562 117.769531 164.085938 117.632812 164.085938 C 117.449219 164.085938 111.074219 170.507812 103.402344 178.398438 L 89.398438 192.679688 L 117.90625 221.1875 L 175.449219 163.691406 C 207.074219 132.113281 233.96875 105.574219 235.128906 104.773438 C 242.171875 100.085938 251.277344 97.765625 260.953125 98.210938 C 267.960938 98.570312 272.820312 99.730469 278.703125 102.589844 L 283.386719 104.863281 L 311.394531 132.835938 C 326.824219 148.179688 340.609375 162.230469 342.082031 164.058594 C 348.367188 171.824219 351.535156 182.484375 350.730469 193.546875 C 350.191406 201.394531 348.410156 206.835938 344.402344 213.167969 C 342.308594 216.417969 337.667969 221.242188 312.683594 246.21875 C 282.308594 276.5 280.703125 277.980469 274.144531 280.96875 C 265.941406 284.667969 254.292969 285.378906 244.21875 282.792969 C 240.070312 281.726562 234.40625 278.957031 231.015625 276.417969 C 229.683594 275.394531 222.367188 268.433594 214.832031 260.988281 C 201.226562 247.515625 201.089844 247.386719 201.089844 245.558594 C 201.089844 243.734375 201.226562 243.597656 220.183594 224.640625 L 239.230469 205.59375 L 241.238281 205.59375 C 243.25 205.59375 243.25 205.59375 251.050781 213.394531 L 258.851562 221.199219 L 273.085938 206.964844 L 287.316406 192.6875 L 285.582031 190.769531 C 284.640625 189.699219 278.261719 183.230469 271.441406 176.363281 L 259.042969 163.875 L 203.648438 219.316406 C 173.183594 249.828125 146.648438 276.097656 144.683594 277.707031 C 140.707031 280.921875 133.839844 284.484375 129.289062 285.644531 C 125.855469 286.539062 112.921875 286.941406 109.441406 286.265625 Z M 109.441406 286.246094 " fill-opacity="1" fill-rule="nonzero"></path><path fill="#010100" d="M 108.765625 291.382812 C 104.925781 290.53125 99.21875 288.703125 96.988281 287.542969 C 91.1875 284.601562 88.867188 282.457031 57.917969 251.460938 C 30.3125 223.855469 29.0625 222.421875 25.488281 215.148438 C 21.5625 207.074219 20.042969 196.726562 21.515625 187.671875 C 22.941406 178.976562 25.167969 173.484375 29.855469 167.199219 C 32.75 163.273438 89.359375 106.625 93.371094 103.59375 C 101.539062 97.480469 114.027344 94.183594 124.640625 95.390625 C 127.050781 95.65625 130.613281 96.285156 132.578125 96.769531 C 137.347656 97.976562 145.332031 101.8125 148.765625 104.617188 C 152.695312 107.742188 180.929688 135.703125 181.726562 137.21875 C 182.035156 137.886719 182.347656 139.136719 182.347656 139.988281 C 182.347656 141.457031 181.324219 142.574219 165.757812 158.054688 C 156.613281 167.15625 146.398438 177.238281 143.054688 180.492188 C 134.714844 188.519531 135.921875 188.660156 125.746094 178.574219 L 117.851562 170.808594 L 96.046875 192.613281 L 106.925781 203.320312 C 112.855469 209.210938 117.898438 214.027344 118.035156 214.027344 C 118.21875 214.027344 143.101562 189.269531 173.429688 158.988281 C 203.714844 128.707031 229.457031 103.144531 230.617188 102.203125 C 237.265625 96.761719 246.410156 93.324219 255.507812 92.839844 C 263.582031 92.394531 271.925781 93.910156 278.527344 96.941406 C 285.261719 100.023438 287.132812 101.710938 316.265625 130.890625 C 331.613281 146.316406 345.121094 160.058594 346.28125 161.398438 C 350.164062 166.039062 353.773438 173.839844 355.207031 180.800781 C 356.585938 187.625 355.875 199.265625 353.644531 205.730469 C 352.394531 209.386719 349.761719 214.253906 346.914062 218.046875 C 343.925781 222.054688 288.84375 277.058594 284.203125 280.667969 C 279.652344 284.238281 273.898438 286.867188 267.695312 288.339844 C 262.925781 289.453125 262.03125 289.5 255.335938 289.28125 C 247.214844 289.0625 245.25 288.703125 239.101562 286.339844 C 230.898438 283.214844 229.289062 281.964844 211.449219 264.214844 L 195.300781 248.15625 L 195.300781 243.421875 L 203.101562 235.300781 C 218.355469 219.425781 239.183594 198.953125 240.390625 198.632812 C 242.261719 198.140625 243.640625 199.210938 251.269531 206.835938 C 255.199219 210.8125 258.542969 214.015625 258.679688 214.015625 C 258.859375 214.015625 263.8125 209.203125 269.742188 203.265625 L 280.492188 192.511719 L 277.105469 188.859375 C 275.277344 186.804688 270.371094 181.945312 266.261719 177.980469 L 258.769531 170.800781 L 205.867188 223.746094 C 176.78125 252.867188 151.140625 278.382812 148.867188 280.4375 C 142.261719 286.285156 135.929688 289.535156 127.726562 291.234375 C 122.867188 292.257812 113.140625 292.304688 108.773438 291.371094 Z M 127.945312 284.292969 C 132.449219 283.132812 139.367188 279.5625 143.339844 276.355469 C 145.304688 274.746094 172.105469 248.253906 202.890625 217.433594 C 233.667969 186.613281 258.914062 161.410156 259.042969 161.410156 C 259.226562 161.410156 283.707031 185.980469 287.589844 190.09375 L 290.003906 192.632812 L 274.65625 208.023438 C 266.222656 216.5 259.136719 223.417969 258.859375 223.417969 C 258.597656 223.417969 254.714844 219.71875 250.164062 215.167969 C 245.613281 210.617188 241.597656 206.917969 241.238281 206.917969 C 240.480469 206.917969 202.433594 244.792969 202.433594 245.550781 C 202.433594 246.265625 229.375 272.800781 232.359375 275.074219 C 243.421875 283.414062 260.242188 285.289062 272.820312 279.625 C 279.378906 276.636719 280.984375 275.167969 311.3125 244.875 C 340.621094 215.617188 342.675781 213.339844 345.617188 207.449219 C 352.128906 194.25 350.121094 176.9375 340.757812 165.390625 C 339.285156 163.566406 325.5 149.515625 310.070312 134.167969 L 282.0625 106.195312 L 277.378906 103.921875 C 271.980469 101.335938 266.898438 99.949219 260.960938 99.546875 C 252.933594 99.007812 243.210938 101.636719 236.472656 106.105469 C 235.3125 106.910156 208.234375 133.628906 176.34375 165.472656 C 144.453125 197.363281 118.136719 223.417969 117.917969 223.417969 C 117.652344 223.417969 110.554688 216.5 102.121094 208.070312 L 86.777344 192.679688 L 102.078125 177.066406 C 110.460938 168.460938 117.46875 161.410156 117.644531 161.410156 C 117.78125 161.410156 121.746094 165.246094 126.386719 169.886719 C 131.027344 174.574219 135.035156 178.363281 135.308594 178.363281 C 135.574219 178.363281 144.546875 169.574219 155.296875 158.824219 L 174.835938 139.285156 L 160.429688 125.003906 C 143.347656 108.097656 140.984375 106.269531 132.105469 103.546875 C 128.449219 102.433594 127.601562 102.34375 120.144531 102.34375 C 112.519531 102.34375 111.941406 102.386719 108.324219 103.59375 C 103.867188 105.0625 100.476562 106.761719 97.398438 108.945312 C 96.195312 109.839844 81.972656 123.753906 65.820312 139.90625 C 34.816406 170.816406 33.574219 172.242188 30.761719 179.019531 C 28.53125 184.375 27.902344 187.945312 27.902344 195.300781 C 27.902344 200.433594 28.121094 202.480469 28.839844 205.246094 C 30.222656 210.335938 32.851562 215.597656 35.929688 219.386719 C 40.078125 224.476562 92.046875 276.035156 95.390625 278.355469 C 100.121094 281.652344 105.15625 283.800781 110.78125 284.914062 C 114.082031 285.582031 124.523438 285.179688 127.957031 284.292969 Z M 127.945312 284.292969 " fill-opacity="1" fill-rule="nonzero"></path><style>@media (prefers-color-scheme: light) { :root { filter: none; } }
@media (prefers-color-scheme: dark) { :root { filter: none; } }
</style></svg>