<svg xmlns="http://www.w3.org/2000/svg" xmlns:xlink="http://www.w3.org/1999/xlink" width="500" zoomAndPan="magnify" viewBox="0 0 375 374.999991" height="500" preserveAspectRatio="xMidYMid meet" version="1.0"><defs><clipPath id="66096aa4e0"><path d="M 187.5 0 C 83.945312 0 0 83.945312 0 187.5 C 0 291.054688 83.945312 375 187.5 375 C 291.054688 375 375 291.054688 375 187.5 C 375 83.945312 291.054688 0 187.5 0 Z M 187.5 0 " clip-rule="nonzero"/></clipPath><clipPath id="d26a781c13"><path d="M 0 0 L 375 0 L 375 375 L 0 375 Z M 0 0 " clip-rule="nonzero"/></clipPath><clipPath id="8a97ea8c9f"><path d="M 187.5 0 C 83.945312 0 0 83.945312 0 187.5 C 0 291.054688 83.945312 375 187.5 375 C 291.054688 375 375 291.054688 375 187.5 C 375 83.945312 291.054688 0 187.5 0 Z M 187.5 0 " clip-rule="nonzero"/></clipPath><clipPath id="9b4b9f9f83"><rect x="0" width="375" y="0" height="375"/></clipPath></defs><g clip-path="url(#66096aa4e0)"><g transform="matrix(1, 0, 0, 1, 0, 0)"><g clip-path="url(#9b4b9f9f83)"><g clip-path="url(#d26a781c13)"><g clip-path="url(#8a97ea8c9f)"><rect x="-82.5" width="540" fill="#000000" height="539.999987" y="-82.499998" fill-opacity="1"/></g></g></g></g></g><path fill="#daaf08" d="M 109.285156 285.945312 C 103.667969 284.832031 98.632812 282.734375 93.902344 279.390625 C 90.5625 277.074219 38.636719 225.558594 34.492188 220.472656 C 31.417969 216.6875 28.789062 211.429688 27.410156 206.34375 C 26.652344 203.453125 26.46875 201.582031 26.46875 195.074219 C 26.421875 186.292969 26.960938 183.125 29.328125 177.464844 C 32.136719 170.691406 33.378906 169.269531 64.359375 138.382812 C 80.496094 122.246094 94.707031 108.34375 95.910156 107.449219 C 98.988281 105.265625 102.375 103.570312 106.828125 102.101562 C 110.523438 100.847656 110.878906 100.847656 119.972656 100.847656 C 128.890625 100.847656 129.511719 100.894531 133.253906 102.054688 C 142.125 104.820312 144.480469 106.601562 161.554688 123.496094 C 174.261719 136.0625 175.90625 137.890625 175.90625 139.09375 C 175.90625 140.34375 173.722656 142.664062 156.382812 159.996094 C 137.175781 179.199219 136.859375 179.472656 135.125 179.472656 C 133.390625 179.472656 133.03125 179.164062 125.539062 171.679688 C 121.257812 167.398438 117.609375 163.882812 117.46875 163.882812 C 117.289062 163.882812 110.917969 170.300781 103.25 178.1875 L 89.257812 192.453125 L 117.746094 220.941406 L 175.238281 163.492188 C 206.839844 131.9375 233.710938 105.421875 234.867188 104.617188 C 241.90625 99.9375 251.007812 97.617188 260.671875 98.066406 C 267.671875 98.421875 272.527344 99.582031 278.40625 102.4375 L 283.089844 104.710938 L 311.074219 132.660156 C 326.492188 147.992188 340.265625 162.03125 341.734375 163.855469 C 348.011719 171.613281 351.179688 182.265625 350.378906 193.320312 C 349.839844 201.160156 348.058594 206.601562 344.050781 212.925781 C 341.960938 216.175781 337.324219 220.996094 312.359375 245.949219 C 282.011719 276.207031 280.40625 277.6875 273.851562 280.671875 C 265.65625 284.367188 254.019531 285.078125 243.949219 282.496094 C 239.804688 281.429688 234.148438 278.664062 230.761719 276.125 C 229.429688 275.101562 222.117188 268.148438 214.585938 260.707031 C 200.996094 247.246094 200.859375 247.117188 200.859375 245.292969 C 200.859375 243.464844 200.996094 243.328125 219.9375 224.390625 L 238.964844 205.359375 L 240.976562 205.359375 C 242.984375 205.359375 242.984375 205.359375 250.777344 213.152344 L 258.574219 220.949219 L 272.792969 206.726562 L 287.015625 192.460938 L 285.28125 190.546875 C 284.339844 189.476562 277.96875 183.015625 271.148438 176.152344 L 258.765625 163.675781 L 203.414062 219.070312 C 172.976562 249.554688 146.460938 275.804688 144.496094 277.410156 C 140.527344 280.625 133.664062 284.183594 129.117188 285.34375 C 125.683594 286.238281 112.761719 286.640625 109.28125 285.964844 Z M 109.285156 285.945312 " fill-opacity="1" fill-rule="nonzero"/><path fill="#000000" d="M 108.609375 291.074219 C 104.773438 290.226562 99.070312 288.402344 96.84375 287.242188 C 91.046875 284.304688 88.726562 282.15625 57.804688 251.1875 C 30.222656 223.605469 28.96875 222.171875 25.402344 214.90625 C 21.476562 206.839844 19.960938 196.496094 21.429688 187.449219 C 22.855469 178.761719 25.082031 173.277344 29.765625 166.996094 C 32.65625 163.070312 89.222656 106.472656 93.226562 103.441406 C 101.386719 97.335938 113.867188 94.039062 124.472656 95.246094 C 126.882812 95.511719 130.441406 96.140625 132.402344 96.625 C 137.167969 97.828125 145.144531 101.660156 148.578125 104.464844 C 152.503906 107.585938 180.714844 135.523438 181.507812 137.039062 C 181.820312 137.707031 182.128906 138.957031 182.128906 139.804688 C 182.128906 141.273438 181.109375 142.390625 165.554688 157.859375 C 156.417969 166.949219 146.214844 177.027344 142.871094 180.277344 C 134.539062 188.300781 135.742188 188.4375 125.574219 178.359375 L 117.691406 170.601562 L 95.902344 192.390625 L 106.773438 203.085938 C 112.695312 208.972656 117.734375 213.785156 117.871094 213.785156 C 118.054688 213.785156 142.917969 189.046875 173.222656 158.789062 C 203.480469 128.53125 229.199219 102.996094 230.359375 102.054688 C 237.003906 96.613281 246.140625 93.183594 255.230469 92.699219 C 263.300781 92.25 271.632812 93.765625 278.234375 96.796875 C 284.960938 99.871094 286.832031 101.5625 315.9375 130.714844 C 331.273438 146.132812 344.773438 159.859375 345.933594 161.199219 C 349.8125 165.835938 353.417969 173.632812 354.847656 180.585938 C 356.226562 187.40625 355.515625 199.035156 353.289062 205.496094 C 352.039062 209.148438 349.410156 214.011719 346.5625 217.800781 C 343.578125 221.808594 288.539062 276.765625 283.902344 280.367188 C 279.355469 283.9375 273.605469 286.566406 267.40625 288.035156 C 262.644531 289.148438 261.75 289.195312 255.058594 288.976562 C 246.945312 288.757812 244.980469 288.402344 238.839844 286.039062 C 230.640625 282.914062 229.035156 281.664062 211.210938 263.929688 L 195.074219 247.882812 L 195.074219 243.15625 L 202.867188 235.042969 C 218.109375 219.179688 238.921875 198.722656 240.125 198.402344 C 241.996094 197.910156 243.375 198.980469 250.996094 206.601562 C 254.921875 210.570312 258.261719 213.773438 258.398438 213.773438 C 258.582031 213.773438 263.527344 208.964844 269.453125 203.03125 L 280.195312 192.289062 L 276.808594 188.636719 C 274.984375 186.585938 270.082031 181.726562 265.976562 177.765625 L 258.492188 170.59375 L 205.632812 223.496094 C 176.570312 252.59375 150.949219 278.085938 148.675781 280.140625 C 142.078125 285.984375 135.753906 289.230469 127.554688 290.929688 C 122.699219 291.953125 112.980469 291.996094 108.617188 291.066406 Z M 127.777344 283.992188 C 132.277344 282.832031 139.183594 279.265625 143.15625 276.0625 C 145.117188 274.453125 171.898438 247.984375 202.65625 217.1875 C 233.40625 186.390625 258.636719 161.210938 258.765625 161.210938 C 258.945312 161.210938 283.410156 185.761719 287.289062 189.871094 L 289.699219 192.40625 L 274.363281 207.789062 C 265.9375 216.257812 258.855469 223.167969 258.582031 223.167969 C 258.316406 223.167969 254.4375 219.46875 249.890625 214.925781 C 245.347656 210.378906 241.332031 206.683594 240.976562 206.683594 C 240.21875 206.683594 202.203125 244.523438 202.203125 245.28125 C 202.203125 245.996094 229.117188 272.511719 232.101562 274.78125 C 243.15625 283.117188 259.960938 284.988281 272.527344 279.328125 C 279.082031 276.34375 280.6875 274.875 310.992188 244.609375 C 340.273438 215.371094 342.328125 213.097656 345.265625 207.210938 C 351.773438 194.023438 349.765625 176.726562 340.410156 165.1875 C 338.941406 163.363281 325.167969 149.324219 309.75 133.992188 L 281.765625 106.042969 L 277.082031 103.769531 C 271.6875 101.1875 266.613281 99.800781 260.679688 99.398438 C 252.65625 98.859375 242.945312 101.488281 236.210938 105.953125 C 235.050781 106.753906 207.996094 133.453125 176.132812 165.269531 C 144.269531 197.136719 117.972656 223.167969 117.753906 223.167969 C 117.488281 223.167969 110.398438 216.257812 101.972656 207.832031 L 86.636719 192.453125 L 101.925781 176.855469 C 110.304688 168.257812 117.304688 161.210938 117.480469 161.210938 C 117.617188 161.210938 121.578125 165.042969 126.214844 169.679688 C 130.851562 174.363281 134.859375 178.148438 135.132812 178.148438 C 135.398438 178.148438 144.359375 169.371094 155.101562 158.625 L 174.628906 139.101562 L 160.234375 124.835938 C 143.164062 107.941406 140.800781 106.117188 131.929688 103.394531 C 128.277344 102.28125 127.429688 102.191406 119.980469 102.191406 C 112.359375 102.191406 111.785156 102.238281 108.167969 103.441406 C 103.714844 104.910156 100.328125 106.609375 97.253906 108.789062 C 96.046875 109.683594 81.835938 123.585938 65.699219 139.722656 C 34.722656 170.609375 33.480469 172.035156 30.667969 178.808594 C 28.441406 184.15625 27.8125 187.726562 27.8125 195.074219 C 27.8125 200.203125 28.03125 202.246094 28.75 205.011719 C 30.128906 210.097656 32.757812 215.355469 35.835938 219.140625 C 39.976562 224.226562 91.90625 275.742188 95.246094 278.058594 C 99.972656 281.355469 105.003906 283.5 110.625 284.613281 C 113.921875 285.28125 124.351562 284.878906 127.785156 283.992188 Z M 127.777344 283.992188 " fill-opacity="1" fill-rule="nonzero"/></svg>